<svg xmlns="http://www.w3.org/2000/svg" xmlns:xlink="http://www.w3.org/1999/xlink" preserveAspectRatio="xMidYMid" width="6" height="6.5" viewBox="0 0 12 13">
  <defs>
    <style>
      .cls-1 {
        fill: #fff;
        fill-rule: evenodd;
      }
    </style>
  </defs>
  <path d="M3.093,7.495 C2.818,7.204 2.611,6.875 2.473,6.507 C2.335,6.140 2.267,5.767 2.267,5.385 C2.267,5.004 2.335,4.628 2.473,4.256 C2.611,3.884 2.818,3.553 3.093,3.261 C3.369,2.969 3.680,2.753 4.027,2.612 C4.373,2.471 4.729,2.400 5.093,2.400 C5.458,2.400 5.813,2.471 6.160,2.612 C6.507,2.753 6.818,2.969 7.094,3.261 C7.369,3.553 7.576,3.884 7.714,4.256 C7.851,4.628 7.920,5.004 7.920,5.385 C7.920,5.767 7.851,6.140 7.714,6.507 C7.576,6.875 7.369,7.204 7.094,7.495 C6.818,7.787 6.507,8.006 6.160,8.152 C5.813,8.298 5.458,8.371 5.093,8.371 C4.729,8.371 4.373,8.298 4.027,8.152 C3.680,8.006 3.369,7.787 3.093,7.495 ZM1.493,1.567 C0.995,2.094 0.622,2.689 0.373,3.353 C0.124,4.016 -0.000,4.691 -0.000,5.378 C-0.000,6.065 0.124,6.740 0.373,7.404 C0.622,8.067 0.995,8.662 1.493,9.189 C1.893,9.613 2.338,9.952 2.827,10.206 C3.315,10.460 3.822,10.629 4.347,10.714 C4.871,10.799 5.398,10.794 5.927,10.700 C6.456,10.606 6.960,10.427 7.440,10.163 L9.734,12.591 C9.867,12.732 10.014,12.836 10.174,12.902 C10.334,12.967 10.501,13.000 10.674,13.000 C10.847,13.000 11.014,12.967 11.174,12.902 C11.334,12.836 11.481,12.732 11.614,12.591 C11.747,12.450 11.845,12.294 11.907,12.125 C11.969,11.956 12.001,11.779 12.001,11.596 C12.001,11.412 11.969,11.236 11.907,11.067 C11.845,10.897 11.747,10.742 11.614,10.601 L9.400,8.258 C9.712,7.740 9.929,7.185 10.054,6.592 C10.178,5.999 10.212,5.406 10.154,4.814 C10.096,4.221 9.945,3.644 9.700,3.085 C9.456,2.524 9.120,2.019 8.694,1.567 C8.196,1.050 7.634,0.659 7.007,0.396 C6.380,0.132 5.742,0.001 5.093,0.001 C4.444,0.001 3.807,0.132 3.180,0.396 C2.553,0.659 1.991,1.050 1.493,1.567 Z" class="cls-1"/>
</svg>
